#!OML:ASF F:\VICON\USERDATA\INSTALL\Justin_Nancy\Justin_Nancy.ASF
:FULLY-SPECIFIED
:DEGREES
96
root -2.5561 16.9713 18.6039 3.23416 -36.2204 6.83592
lowerback 9.20432 1.90581 4.28
upperback 0.052427 3.0818 2.12733
thorax -5.00268 1.4319 -0.593745
lowerneck -13.8098 -7.06373 -12.1373
upperneck 15.98 -8.1328 5.65228
head 7.9575 -4.10553 2.91621
rclavicle 4.77083e-015 2.54444e-014
rhumerus -38.773 18.261 -92.6146
rradius 126.053
rwrist -10.5723
rhand -15.9759 30.256
rfingers 7.12502
rthumb 10.2234 0.524456
lclavicle 4.77083e-015 2.54444e-014
lhumerus -68.483 -5.40607 89.6672
lradius 95.473
lwrist 26.5367
lhand -11.6564 11.8636
lfingers 7.12502
lthumb 14.3881 41.3449
rfemur 13.7772 7.96879 33.6591
rtibia 27.7566
rfoot 23.7096 10.7758
rtoes 5.0055
lfemur -50.0838 9.06525 -18.2618
ltibia 48.0138
lfoot 0.160642 -6.03542
ltoes -7.53557
97
root -2.89625 16.9792 19.1004 3.091 -35.7951 6.2923
lowerback 9.68798 1.8151 4.43125
upperback -0.0328426 3.0208 2.3142
thorax -5.37004 1.39039 -0.495294
lowerneck -13.6906 -7.0934 -12.3436
upperneck 16.1196 -8.18991 5.85101
head 8.00646 -4.13138 3.01077
rclavicle 2.98177e-014 -2.38542e-014
rhumerus -39.5496 18.7153 -92.6734
rradius 126.126
rwrist -10.4977
rhand -15.8788 29.7916
rfingers 7.12502
rthumb 10.317 0.0646403
lclavicle 2.98177e-014 -2.38542e-014
lhumerus -68.9605 -4.85683 89.9188
lradius 96.3698
lwrist 26.3127
lhand -11.1049 12.1871
lfingers 7.12502
lthumb 14.9195 41.6298
rfemur 13.7546 8.80917 34.5924
rtibia 30.7325
rfoot 22.4376 13.568
rtoes 8.96142
lfemur -49.2691 9.22152 -19.198
ltibia 44.8222
lfoot 1.58963 -9.01588
ltoes -6.87703
98
root -3.23141 16.9826 19.5829 2.8247 -35.5427 5.80235
lowerback 10.2201 1.76542 4.61731
upperback 0.053652 3.00847 2.38116
thorax -5.57353 1.37519 -0.545363
lowerneck -13.6893 -7.15288 -12.5644
upperneck 16.1335 -8.30264 6.25266
head 8.04907 -4.16153 3.16597
rclavicle 1.11717e-013 -3.18055e-015
rhumerus -40.2788 19.0468 -92.9917
rradius 126.175
rwrist -10.6506
rhand -16.0089 29.3217
rfingers 7.12502
rthumb 10.1916 -0.411477
lclavicle 1.11717e-013 -3.18055e-015
lhumerus -69.0504 -4.45492 90.1245
lradius 97.2788
lwrist 25.9472
lhand -10.015 11.9222
lfingers 7.12502
lthumb 15.9692 41.2839
rfemur 13.2279 9.37848 35.4005
rtibia 35.0898
rfoot 19.6368 13.7098
rtoes 10.5247
lfemur -48.292 9.13052 -19.7414
ltibia 42.4842
lfoot 3.3048 -11.2523
ltoes -0.956014
99
root -3.56754 16.9959 20.0649 2.58796 -35.4487 5.21198
lowerback 10.6758 1.76838 4.99234
upperback 0.281517 3.07351 2.38096
thorax -5.56743 1.39794 -0.776698
lowerneck -14.0242 -7.29664 -12.4562
upperneck 16.2112 -8.51657 6.42608
head 8.15749 -4.23342 3.16985
rclavicle 6.75868e-015 -4.92986e-014
rhumerus -40.6876 18.9848 -93.2718
rradius 125.771
rwrist -10.3252
rhand -15.9793 29.5935
rfingers 7.12502
rthumb 10.2201 -0.138213
lclavicle 6.75868e-015 -4.92986e-014
lhumerus -68.7846 -4.258 90.323
lradius 98.167
lwrist 25.4862
lhand -8.26439 9.92841
lfingers 7.12502
lthumb 17.6544 39.1469
rfemur 12.3222 9.65651 36.0662
rtibia 40.4054
rfoot 16.1018 11.2342
rtoes 5.00915
lfemur -47.1544 8.5823 -19.7267
ltibia 40.7534
lfoot 4.94465 -11.7674
ltoes 6.75493
100
root -3.89212 16.992 20.5475 2.22776 -35.3256 5.2924
lowerback 10.9343 1.706 4.78964
upperback 0.38757 2.97444 2.31742
thorax -5.61158 1.35389 -0.723231
lowerneck -14.3084 -7.34543 -12.319
upperneck 16.2742 -8.58829 6.46975
head 8.231 -4.24908 3.14547
rclavicle -3.53837e-014 -2.54444e-014
rhumerus -41.1299 19.0487 -93.4207
rradius 124.958
rwrist -9.85786
rhand -15.7908 30.3736
rfingers 7.12502
rthumb 10.402 0.650887
lclavicle -3.53837e-014 -2.54444e-014
lhumerus -68.4484 -3.84684 90.6535
lradius 99.0053
lwrist 24.8542
lhand -10.1279 10.2974
lfingers 7.12502
lthumb 15.8605 39.6678
rfemur 10.5671 9.30506 35.657
rtibia 46.2857
rfoot 13.8968 7.62312
rtoes -2.50522
lfemur -45.5145 8.02138 -20.5985
ltibia 39.672
lfoot 4.05715 -12.3212
ltoes -1.55409
101
root -4.21662 17.0014 21.0205 1.52328 -35.2844 6.14583
lowerback 11.2236 1.63398 3.79857
upperback 0.527746 2.75663 2.12737
thorax -5.67108 1.27172 -0.343351
lowerneck -14.7338 -7.39259 -12.5553
upperneck 16.3376 -8.62525 6.86967
head 8.36059 -4.23425 3.30162
rclavicle -9.66093e-014 0
rhumerus -41.6438 19.2567 -93.7163
rradius 124.035
rwrist -9.64659
rhand -15.9272 30.629
rfingers 7.12502
rthumb 10.2704 0.899766
lclavicle -9.66093e-014 0
lhumerus -67.7887 -3.2841 90.9602
lradius 99.8385
lwrist 24.356
lhand -11.6605 10.0224
lfingers 7.12502
lthumb 14.3841 39.504
rfemur 8.09357 8.68303 34.288
rtibia 52.4553
rfoot 13.2933 4.09185
rtoes -4.78356
lfemur -44.0476 7.07362 -21.7605
ltibia 38.9264
lfoot 4.20391 -11.502
ltoes -8.75456
102
root -4.54344 16.9983 21.4882 0.941735 -35.5067 6.60933
lowerback 11.6069 1.65485 3.02902
upperback 0.710735 2.69213 2.04567
thorax -5.72524 1.25915 0.00237994
lowerneck -15.0086 -7.45618 -12.8266
upperneck 16.1602 -8.67414 7.22865
head 8.38422 -4.23144 3.45239
rclavicle -3.02153e-014 2.38542e-014
rhumerus -42.2245 19.2286 -94.0401
rradius 122.969
rwrist -9.42377
rhand -15.9087 30.4709
rfingers 7.12502
rthumb 10.2882 0.742487
lclavicle -3.02153e-014 2.38542e-014
lhumerus -66.9469 -2.8721 91.4474
lradius 100.614
lwrist 24.0841
lhand -12.4275 9.67324
lfingers 7.12502
lthumb 13.645 39.206
rfemur 5.44388 8.11748 33.2047
rtibia 58.7177
rfoot 12.7018 1.092
rtoes -4.01222
lfemur -42.4643 6.53487 -22.4188
ltibia 38.4819
lfoot 5.5017 -10.196
ltoes -10.2794
103
root -4.87343 16.987 21.9525 0.55243 -35.8034 6.87921
lowerback 11.9168 1.65403 2.37269
upperback 0.824669 2.61085 2.00895
thorax -5.80703 1.23487 0.33722
lowerneck -15.2033 -7.27753 -12.4763
upperneck 15.7927 -8.41963 7.01588
head 8.24138 -4.10205 3.3548
rclavicle 2.82274e-014 2.06736e-014
rhumerus -42.9203 19.0849 -94.434
rradius 121.8
rwrist -9.10976
rhand -15.7732 30.4248
rfingers 7.12502
rthumb 10.4189 0.702944
lclavicle 2.82274e-014 2.06736e-014
lhumerus -65.9977 -2.61146 91.9934
lradius 101.345
lwrist 24.4699
lhand -12.8024 9.17244
lfingers 7.12502
lthumb 13.2837 38.7291
rfemur 2.55529 7.37777 32.1563
rtibia 64.8407
rfoot 11.6527 -1.2623
rtoes -4.48015
lfemur -40.7546 6.1937 -22.8562
ltibia 38.1422
lfoot 7.66944 -9.14399
ltoes -6.60044
104
root -5.19944 16.9682 22.4242 -0.257715 -36.1305 7.53468
lowerback 12.2722 1.60124 1.61342
upperback 1.05946 2.42829 1.7812
thorax -5.7799 1.16213 0.548361
lowerneck -15.5333 -6.94866 -11.8382
upperneck 15.6178 -7.9798 6.58645
head 8.14794 -3.88776 3.1605
rclavicle 3.49861e-014 9.54166e-015
rhumerus -43.5826 18.8421 -94.9522
rradius 120.493
rwrist -8.78925
rhand -15.9457 30.2219
rfingers 7.12502
rthumb 10.2525 0.491766
lclavicle 3.49861e-014 9.54166e-015
lhumerus -64.7106 -2.30014 92.37
lradius 101.971
lwrist 24.9727
lhand -13.0372 8.65762
lfingers 7.12502
lthumb 13.0573 38.2289
rfemur -0.320503 6.49443 30.5572
rtibia 70.5918
rfoot 10.5493 -3.59774
rtoes -4.40398
lfemur -38.7051 5.40102 -23.4021
ltibia 38.1796
lfoot 8.66945 -9.74789
ltoes -6.43116
